<svg width="253" height="232" viewBox="0 0 253 232" fill="none" xmlns="http://www.w3.org/2000/svg">
<path d="M44.8 185.1C43.3333 185.1 41.6 184.167 39.6 182.3C37.6667 180.5 35.6333 178.1 33.5 175.1C31.3667 172.167 29.2333 168.933 27.1 165.4C25.0333 161.867 23.1 158.333 21.3 154.8C19.5667 151.267 18.1 148.1 16.9 145.3C15.0333 151.833 13.2333 158.267 11.5 164.6C9.76667 170.867 8.13333 176.567 6.6 181.7C4.93333 181.7 3.4 181.233 2 180.3C0.666667 179.367 0 178.167 0 176.7C0 175.967 0.166667 175.067 0.5 174C0.833333 173 1.13333 172.067 1.4 171.2C3.06667 165.933 4.7 160.967 6.3 156.3C7.9 151.633 9.46667 147.133 11 142.8C12.5333 138.467 14.1 134.167 15.7 129.9C17.3667 125.633 19.1 121.333 20.9 117C22.7 112.667 24.6333 108.167 26.7 103.5C23.9 103.967 21.4667 104.667 19.4 105.6C17.3333 106.467 15.6667 107.3 14.4 108.1C13.1333 108.833 12.2667 109.2 11.8 109.2C11.5333 109.2 11.1333 109.067 10.6 108.8C10.1333 108.467 9.7 108.1 9.3 107.7C8.9 107.233 8.7 106.833 8.7 106.5C10.4333 105.767 12.4667 104.967 14.8 104.1C17.1333 103.233 19.7 102.5 22.5 101.9C25.3 101.3 28.2 101 31.2 101C34.0667 101 36.9667 101.367 39.9 102.1C42.9 102.767 45.6333 103.867 48.1 105.4C50.6333 106.867 52.6667 108.8 54.2 111.2C55.7333 113.533 56.5 116.367 56.5 119.7C56.5 122.967 55.7333 125.8 54.2 128.2C52.7333 130.533 50.7667 132.5 48.3 134.1C45.9 135.7 43.2667 137 40.4 138C37.5333 138.933 34.7 139.667 31.9 140.2C29.1 140.667 26.5667 141 24.3 141.2C22.0333 141.333 20.3333 141.4 19.2 141.4C21.2667 144.933 23.2333 148.367 25.1 151.7C26.9667 155.033 29 158.367 31.2 161.7C33.4 164.967 36 168.267 39 171.6C42 174.933 45.6333 178.333 49.9 181.8C49.5 182.667 48.7667 183.433 47.7 184.1C46.7 184.767 45.7333 185.1 44.8 185.1ZM18.5 139.8C22.1 139.6 25.7333 139.033 29.4 138.1C33.1333 137.1 36.5333 135.733 39.6 134C42.6667 132.2 45.1333 129.967 47 127.3C48.8667 124.567 49.8 121.333 49.8 117.6C49.8 113.933 48.9333 111.067 47.2 109C45.4667 106.867 43.2333 105.367 40.5 104.5C37.7667 103.567 34.9 103.1 31.9 103.1C29.6333 107.7 27.3667 113.233 25.1 119.7C22.8333 126.1 20.6333 132.8 18.5 139.8Z" fill="url(#paint0_linear_222_93)"/>
<path d="M63.8875 177.4C59.8208 177.4 56.7542 176.267 54.6875 174C52.6875 171.8 51.6875 169.067 51.6875 165.8C51.6875 162.8 52.4208 159.633 53.8875 156.3C55.4208 152.967 57.4208 149.833 59.8875 146.9C62.4208 143.967 65.1875 141.6 68.1875 139.8C71.1875 137.933 74.1542 137 77.0875 137C78.6208 137 80.0208 137.4 81.2875 138.2C82.6208 139 83.2875 140.633 83.2875 143.1C83.2875 145.633 82.5208 148.033 80.9875 150.3C79.5208 152.5 77.5542 154.467 75.0875 156.2C72.6875 157.933 70.0208 159.367 67.0875 160.5C64.2208 161.567 61.3542 162.233 58.4875 162.5C58.3542 163.167 58.2542 163.8 58.1875 164.4C58.1208 165 58.0875 165.567 58.0875 166.1C58.0875 167.1 58.1875 168.1 58.3875 169.1C58.6542 170.1 59.0875 171.033 59.6875 171.9C60.2875 172.7 61.0875 173.333 62.0875 173.8C63.1542 174.267 64.4542 174.5 65.9875 174.5C68.8542 174.5 71.6875 173.7 74.4875 172.1C77.2875 170.433 79.8875 168.267 82.2875 165.6C84.6875 162.933 86.7208 160 88.3875 156.8L89.5875 157.7C87.7875 161.7 85.4875 165.167 82.6875 168.1C79.9542 171.033 76.9542 173.3 73.6875 174.9C70.4875 176.567 67.2208 177.4 63.8875 177.4ZM58.9875 160.6C60.7875 160 62.8208 159.133 65.0875 158C67.3542 156.8 69.5208 155.4 71.5875 153.8C73.7208 152.2 75.4542 150.433 76.7875 148.5C78.1875 146.567 78.8875 144.533 78.8875 142.4C78.8875 141.667 78.7542 141.1 78.4875 140.7C78.2208 140.3 77.6542 140.1 76.7875 140.1C75.1875 140.1 73.4875 140.733 71.6875 142C69.8875 143.2 68.1542 144.8 66.4875 146.8C64.8208 148.8 63.3208 151 61.9875 153.4C60.6542 155.8 59.6542 158.2 58.9875 160.6Z" fill="url(#paint1_linear_222_93)"/>
<path d="M97.0883 178.6C93.8883 178.6 91.2216 177.533 89.0883 175.4C86.9549 173.267 85.8883 170.067 85.8883 165.8C85.8883 162.467 86.5216 159.233 87.7883 156.1C89.1216 152.9 90.8549 150.033 92.9883 147.5C95.1216 144.967 97.4883 142.967 100.088 141.5C102.688 139.967 105.255 139.2 107.788 139.2C110.522 139.2 112.388 140 113.388 141.6C114.388 143.2 114.888 144.867 114.888 146.6C114.888 148.533 114.422 150.233 113.488 151.7C112.622 153.167 111.422 153.9 109.888 153.9C108.755 153.9 107.788 153.4 106.988 152.4C107.988 151.867 108.855 150.8 109.588 149.2C110.322 147.533 110.688 145.967 110.688 144.5C110.688 143.7 110.522 143.1 110.188 142.7C109.922 142.233 109.355 142 108.488 142C106.688 142 104.822 142.8 102.888 144.4C101.022 146 99.2549 148.067 97.5883 150.6C95.9883 153.133 94.6549 155.8 93.5883 158.6C92.5883 161.4 92.0883 164.033 92.0883 166.5C92.0883 168.567 92.5883 170.467 93.5883 172.2C94.5883 173.933 96.5216 174.8 99.3883 174.8C102.055 174.8 104.722 174.067 107.388 172.6C110.122 171.133 112.655 169.033 114.988 166.3C117.322 163.567 119.188 160.367 120.588 156.7L121.888 157.7C120.355 161.7 118.255 165.3 115.588 168.5C112.922 171.633 109.988 174.1 106.788 175.9C103.588 177.7 100.355 178.6 97.0883 178.6Z" fill="url(#paint2_linear_222_93)"/>
<path d="M125.912 175.6C123.312 175.6 121.379 174.767 120.113 173.1C118.846 171.5 118.213 169.533 118.213 167.2C118.213 165.667 118.479 163.733 119.012 161.4C119.612 159.067 120.379 156.633 121.312 154.1C122.246 151.5 123.312 149.067 124.512 146.8C125.779 144.533 127.112 142.7 128.512 141.3C129.912 139.833 131.279 139.1 132.613 139.1C133.213 139.1 133.713 139.3 134.113 139.7C134.579 140.033 134.812 140.567 134.812 141.3C134.812 142.1 134.279 143.4 133.212 145.2C132.212 147 131.012 149.067 129.613 151.4C128.213 153.733 126.979 156.2 125.912 158.8C124.912 161.333 124.412 163.767 124.412 166.1C124.412 168.5 124.812 170.1 125.613 170.9C126.413 171.7 127.646 172.1 129.312 172.1C131.579 172.1 133.979 170.967 136.512 168.7C139.113 166.433 141.846 162.467 144.713 156.8L145.613 157.8C143.679 163.533 140.879 167.933 137.212 171C133.612 174.067 129.846 175.6 125.912 175.6ZM137.913 129.8C136.846 129.8 135.879 129.533 135.012 129C134.212 128.467 133.812 127.633 133.812 126.5C133.812 125.1 134.612 123.9 136.212 122.9C137.879 121.833 139.512 121.3 141.113 121.3C142.113 121.3 142.912 121.533 143.512 122C144.113 122.467 144.413 123.267 144.413 124.4C144.413 125.667 143.712 126.9 142.312 128.1C140.979 129.233 139.513 129.8 137.913 129.8Z" fill="url(#paint3_linear_222_93)"/>
<path d="M136.534 201C136 201 135.5 200.7 135.034 200.1C134.5 199.567 134.1 198.967 133.834 198.3C133.567 197.7 133.434 197.333 133.434 197.2C134.367 193.933 135.3 191 136.234 188.4C137.1 185.867 138 183.233 138.934 180.5C139.8 177.833 140.667 174.7 141.534 171.1C142.4 167.433 143.3 162.9 144.234 157.5C145.167 152.1 146.1 145.4 147.034 137.4C147.1 136.8 147.234 136.367 147.434 136.1C147.634 135.833 148.134 135.7 148.934 135.7C150.667 135.7 151.9 136.2 152.634 137.2C153.367 138.133 153.734 139.167 153.734 140.3C153.734 141.233 153.534 142.9 153.134 145.3C152.734 147.7 152.167 150.533 151.434 153.8C152.567 151.6 153.967 149.367 155.634 147.1C157.367 144.833 159.334 142.933 161.534 141.4C163.734 139.867 166.134 139.1 168.734 139.1C171.667 139.1 174.067 140.167 175.934 142.3C177.867 144.367 178.834 147.1 178.834 150.5C178.834 153.1 178.234 155.867 177.034 158.8C175.9 161.667 174.267 164.4 172.134 167C170.067 169.533 167.6 171.6 164.734 173.2C161.867 174.8 158.7 175.6 155.234 175.6C153.5 175.6 152.1 175.4 151.034 175C149.967 174.6 149.434 174.2 149.434 173.8C149.434 173.533 149.667 173.367 150.134 173.3C150.667 173.3 151.267 173.3 151.934 173.3C154.6 173.3 157.134 172.667 159.534 171.4C162 170.067 164.2 168.333 166.134 166.2C168.067 164.067 169.567 161.7 170.634 159.1C171.767 156.5 172.334 153.933 172.334 151.4C172.334 149.267 171.867 147.467 170.934 146C170.067 144.467 168.634 143.7 166.634 143.7C164.9 143.7 163.167 144.267 161.434 145.4C159.767 146.467 158.167 147.867 156.634 149.6C155.167 151.267 153.834 153.033 152.634 154.9C151.5 156.7 150.634 158.333 150.034 159.8C148.834 164.8 147.634 169.6 146.434 174.2C145.234 178.867 144.067 183.067 142.934 186.8C141.867 190.6 140.9 193.7 140.034 196.1C139.1 198.5 138.334 199.967 137.734 200.5C137.4 200.833 137 201 136.534 201Z" fill="url(#paint4_linear_222_93)"/>
<path d="M192.696 177.4C188.629 177.4 185.563 176.267 183.496 174C181.496 171.8 180.496 169.067 180.496 165.8C180.496 162.8 181.229 159.633 182.696 156.3C184.229 152.967 186.229 149.833 188.696 146.9C191.229 143.967 193.996 141.6 196.996 139.8C199.996 137.933 202.963 137 205.896 137C207.429 137 208.829 137.4 210.096 138.2C211.429 139 212.096 140.633 212.096 143.1C212.096 145.633 211.329 148.033 209.796 150.3C208.329 152.5 206.363 154.467 203.896 156.2C201.496 157.933 198.829 159.367 195.896 160.5C193.029 161.567 190.163 162.233 187.296 162.5C187.163 163.167 187.063 163.8 186.996 164.4C186.929 165 186.896 165.567 186.896 166.1C186.896 167.1 186.996 168.1 187.196 169.1C187.463 170.1 187.896 171.033 188.496 171.9C189.096 172.7 189.896 173.333 190.896 173.8C191.963 174.267 193.263 174.5 194.796 174.5C197.663 174.5 200.496 173.7 203.296 172.1C206.096 170.433 208.696 168.267 211.096 165.6C213.496 162.933 215.529 160 217.196 156.8L218.396 157.7C216.596 161.7 214.296 165.167 211.496 168.1C208.763 171.033 205.763 173.3 202.496 174.9C199.296 176.567 196.029 177.4 192.696 177.4ZM187.796 160.6C189.596 160 191.629 159.133 193.896 158C196.163 156.8 198.329 155.4 200.396 153.8C202.529 152.2 204.263 150.433 205.596 148.5C206.996 146.567 207.696 144.533 207.696 142.4C207.696 141.667 207.563 141.1 207.296 140.7C207.029 140.3 206.463 140.1 205.596 140.1C203.996 140.1 202.296 140.733 200.496 142C198.696 143.2 196.963 144.8 195.296 146.8C193.629 148.8 192.129 151 190.796 153.4C189.463 155.8 188.463 158.2 187.796 160.6Z" fill="url(#paint5_linear_222_93)"/>
<path d="M225.697 178.1C222.564 178.1 220.064 177.4 218.197 176C216.397 174.667 215.13 173 214.397 171C213.597 169 213.197 167 213.197 165C213.197 163 213.464 161.467 213.997 160.4C214.53 159.333 215.164 158.533 215.897 158C216.697 157.467 217.43 157.067 218.097 156.8C218.83 156.533 219.33 156.267 219.597 156C221.597 153.8 223.43 151.5 225.097 149.1C226.764 146.7 228.23 144.167 229.497 141.5V140.3C229.497 137.833 229.897 136.1 230.697 135.1C231.564 134.033 232.464 133.5 233.397 133.5C233.93 133.5 234.33 133.633 234.597 133.9C234.864 134.167 234.997 134.467 234.997 134.8C234.997 135.133 234.897 135.667 234.697 136.4C234.497 137.133 234.397 138.067 234.397 139.2C234.397 141.4 234.83 143.8 235.697 146.4C236.564 148.933 237.43 151.633 238.297 154.5C239.164 157.3 239.597 160.233 239.597 163.3C239.597 164.167 239.53 165.033 239.397 165.9C239.33 166.7 239.197 167.467 238.997 168.2C241.33 167.8 243.53 166.767 245.597 165.1C247.664 163.367 249.664 160.633 251.597 156.9L252.497 157.9C251.23 161.567 249.33 164.367 246.797 166.3C244.264 168.167 241.497 169.333 238.497 169.8C237.43 172.667 235.73 174.767 233.397 176.1C231.13 177.433 228.564 178.1 225.697 178.1ZM225.897 174.6C226.697 174.6 227.764 174.333 229.097 173.8C230.43 173.267 231.464 171.9 232.197 169.7C229.397 169.167 226.897 168.067 224.697 166.4C222.564 164.733 220.964 163.067 219.897 161.4C218.43 161.467 217.697 162.633 217.697 164.9C217.697 167.3 218.397 169.533 219.797 171.6C221.264 173.6 223.297 174.6 225.897 174.6ZM232.697 168.1C232.83 167.433 232.93 166.733 232.997 166C233.064 165.267 233.097 164.4 233.097 163.4C233.097 160.267 232.697 157.167 231.897 154.1C231.164 150.967 230.53 148.033 229.997 145.3C228.464 147.833 226.83 150.267 225.097 152.6C223.43 154.867 221.83 156.767 220.297 158.3C221.297 160.433 222.83 162.433 224.897 164.3C227.03 166.167 229.63 167.433 232.697 168.1Z" fill="url(#paint6_linear_222_93)"/>
<path d="M62.8571 213H189.143C190.431 213 191.666 213.517 192.577 214.437C193.488 215.357 194 216.605 194 217.907C194 219.208 193.488 220.456 192.577 221.376C191.666 222.296 190.431 222.813 189.143 222.813H62.8571C61.5689 222.813 60.3335 222.296 59.4226 221.376C58.5117 220.456 58 219.208 58 217.907C58 216.605 58.5117 215.357 59.4226 214.437C60.3335 213.517 61.5689 213 62.8571 213Z" fill="url(#paint7_linear_222_93)"/>
<path d="M66.6809 223.231H185.319C185.319 228.074 181.433 232 176.638 232H75.3617C70.5674 232 66.6809 228.074 66.6809 223.231Z" fill="url(#paint8_linear_222_93)"/>
<path d="M107.728 24.9771L107.737 17.8869C107.742 13.1413 109.67 8.59177 113.099 5.23785C116.528 1.88393 121.176 -2.37277e-06 126.022 0C136.097 0 144.261 7.99447 144.261 17.86V24.9592C158.985 29.256 171.64 38.594 179.916 51.2689C188.192 63.9437 190.843 86.5 187 93C183.157 99.5 67.3447 98.5 64.5001 93C61.6555 87.5 63.8092 63.9551 72.0815 51.2844C80.3539 38.6138 93.0019 29.2771 107.719 24.9771H107.728ZM71.1488 85.0476C71.1488 92.1015 104.56 85.0476 126.004 85.0476C147.447 85.0476 180.859 92.1015 180.859 85.0476C180.859 77.9938 179.44 71.009 176.683 64.4921C173.926 57.9751 169.886 52.0537 164.792 47.0659C159.698 42.078 153.651 38.1215 146.996 35.4221C140.34 32.7227 133.207 31.3333 126.004 31.3333C118.8 31.3333 111.667 32.7227 105.012 35.4221C98.3563 38.1215 92.3092 42.078 87.2154 47.0659C82.1217 52.0537 78.0811 57.9751 75.3244 64.4921C72.5676 71.009 71.1488 77.9938 71.1488 85.0476ZM135.119 22.381C135.544 20.6673 135.119 17.86 135.119 17.86C135.119 15.4976 134.16 13.2319 132.454 11.5614C130.748 9.89086 128.435 8.95238 126.022 8.95238C123.599 8.95238 121.275 9.89435 119.56 11.5713C117.846 13.2483 116.882 15.523 116.879 17.8958C116.879 17.8958 116.461 20.6801 116.879 22.381C118.58 29.2978 133.405 29.2946 135.119 22.381Z" fill="url(#paint9_linear_222_93)"/>
<defs>
<linearGradient id="paint0_linear_222_93" x1="-1.59998" y1="141" x2="250.4" y2="141" gradientUnits="userSpaceOnUse">
<stop stop-color="#525DC0"/>
<stop offset="1" stop-color="#8E54E9"/>
</linearGradient>
<linearGradient id="paint1_linear_222_93" x1="-1.59998" y1="141" x2="250.4" y2="141" gradientUnits="userSpaceOnUse">
<stop stop-color="#525DC0"/>
<stop offset="1" stop-color="#8E54E9"/>
</linearGradient>
<linearGradient id="paint2_linear_222_93" x1="-1.59998" y1="141" x2="250.4" y2="141" gradientUnits="userSpaceOnUse">
<stop stop-color="#525DC0"/>
<stop offset="1" stop-color="#8E54E9"/>
</linearGradient>
<linearGradient id="paint3_linear_222_93" x1="-1.59998" y1="141" x2="250.4" y2="141" gradientUnits="userSpaceOnUse">
<stop stop-color="#525DC0"/>
<stop offset="1" stop-color="#8E54E9"/>
</linearGradient>
<linearGradient id="paint4_linear_222_93" x1="-1.59998" y1="141" x2="250.4" y2="141" gradientUnits="userSpaceOnUse">
<stop stop-color="#525DC0"/>
<stop offset="1" stop-color="#8E54E9"/>
</linearGradient>
<linearGradient id="paint5_linear_222_93" x1="-1.59998" y1="141" x2="250.4" y2="141" gradientUnits="userSpaceOnUse">
<stop stop-color="#525DC0"/>
<stop offset="1" stop-color="#8E54E9"/>
</linearGradient>
<linearGradient id="paint6_linear_222_93" x1="-1.59998" y1="141" x2="250.4" y2="141" gradientUnits="userSpaceOnUse">
<stop stop-color="#525DC0"/>
<stop offset="1" stop-color="#8E54E9"/>
</linearGradient>
<linearGradient id="paint7_linear_222_93" x1="58" y1="222.5" x2="194" y2="222.5" gradientUnits="userSpaceOnUse">
<stop stop-color="#525DC0"/>
<stop offset="1" stop-color="#8E54E9"/>
</linearGradient>
<linearGradient id="paint8_linear_222_93" x1="58" y1="222.5" x2="194" y2="222.5" gradientUnits="userSpaceOnUse">
<stop stop-color="#525DC0"/>
<stop offset="1" stop-color="#8E54E9"/>
</linearGradient>
<linearGradient id="paint9_linear_222_93" x1="62" y1="47" x2="190" y2="47" gradientUnits="userSpaceOnUse">
<stop stop-color="#525DC0"/>
<stop offset="1" stop-color="#8E54E9"/>
</linearGradient>
</defs>
</svg>
